<svg xmlns="http://www.w3.org/2000/svg" fill="none" viewBox="0 0 48 45">
  <g clip-path="url(#eAvHDuOGv_a)">
    <path d="M47.672 11.522c-.795-3.817-2.99-7.08-6.169-9.186C39.205.82 36.562 0 33.85 0 30.117 0 26.609 1.498 24 4.102 21.39 1.498 17.883 0 14.151 0c-2.713 0-5.373.803-7.654 2.319C3.335 4.423 1.14 7.687.328 11.504c-.795 3.817-.12 7.723 1.935 11.005l9.832 15.785C14.705 42.485 19.162 45 24 45c4.838 0 9.296-2.497 11.905-6.706l9.849-15.785c2.039-3.264 2.73-7.17 1.918-10.987zm-5.322 8.74L32.5 36.046c-1.866 2.997-5.045 4.78-8.501 4.78-3.456 0-6.635-1.783-8.501-4.797L5.667 20.244c-1.468-2.337-1.952-5.137-1.382-7.866.57-2.71 2.143-5.047 4.406-6.546a9.861 9.861 0 015.477-1.658c3.456 0 6.636 1.783 8.502 4.797l1.33 2.14 1.348-2.157c1.866-2.997 5.045-4.78 8.5-4.78a9.86 9.86 0 015.478 1.658c2.264 1.516 3.836 3.835 4.406 6.564.57 2.729.07 5.511-1.382 7.866z" fill="url(#eAvHDuOGv_b)"/>
    <path d="M43.732 12.396c-.57-2.729-2.142-5.048-4.406-6.564a9.861 9.861 0 00-5.477-1.658c-3.456 0-6.635 1.783-8.501 4.78L24 11.112l-1.33-2.14c-1.867-3.015-5.046-4.798-8.502-4.798-1.935 0-3.835.57-5.477 1.658-2.263 1.499-3.836 3.835-4.406 6.564-.57 2.729-.086 5.511 1.382 7.866L15.5 36.046c1.866 2.997 5.045 4.78 8.501 4.798 3.456 0 6.635-1.783 8.501-4.78L42.35 20.28c1.451-2.372 1.952-5.154 1.382-7.883zm-4.786 5.6l-9.849 15.785c-1.123 1.802-3.024 2.872-5.097 2.872-2.073 0-3.974-1.07-5.097-2.872L9.07 17.996a6.352 6.352 0 01-.83-4.708c.346-1.641 1.28-3.032 2.645-3.942a5.845 5.845 0 013.283-.999c2.073 0 3.973 1.07 5.097 2.872L24 18.817l4.752-7.598c1.123-1.802 3.023-2.872 5.097-2.872 1.158 0 2.298.34 3.283.999 1.365.91 2.298 2.3 2.643 3.942a6.353 6.353 0 01-.829 4.708z" fill="#fff"/>
    <path d="M39.775 13.288c-.345-1.641-1.278-3.032-2.643-3.942a5.886 5.886 0 00-3.283-.999c-2.074 0-3.974 1.07-5.097 2.872L24 18.817l-4.734-7.598c-1.123-1.802-3.024-2.872-5.097-2.872a5.886 5.886 0 00-3.284.999c-1.364.892-2.298 2.3-2.643 3.924a6.323 6.323 0 00.83 4.709l9.83 15.784c1.124 1.802 3.025 2.872 5.098 2.872s3.974-1.07 5.097-2.872l9.849-15.784a6.293 6.293 0 00.83-4.691zm-4.233 2.443l-9.849 15.785c-.38.589-1.02.963-1.693.963-.691 0-1.33-.356-1.693-.963l-9.832-15.785c-.605-.963-.328-2.265.605-2.89.933-.623 2.194-.338 2.8.625l7.083 11.362c.225.356.605.606 1.054.606.45 0 .83-.232 1.054-.606l7.102-11.362c.605-.963 1.849-1.248 2.799-.624.916.642 1.175 1.926.57 2.89z" fill="#0B0037"/>
    <path d="M34.937 12.86c-.933-.625-2.194-.34-2.799.624l-7.101 11.361c-.225.357-.605.607-1.054.607-.45 0-.83-.232-1.054-.607l-7.084-11.361c-.605-.963-1.85-1.249-2.8-.624-.933.624-1.21 1.908-.604 2.89l9.831 15.784c.38.589 1.02.963 1.693.963.692 0 1.33-.357 1.694-.963l9.849-15.785c.639-.98.38-2.265-.57-2.89z" fill="#fff"/>
  </g>
  <defs>
    <linearGradient id="eAvHDuOGv_b" x1="0" y1="22.5" x2="48" y2="22.5" gradientUnits="userSpaceOnUse">
      <stop stop-color="#00F3FF"/>
      <stop offset=".33" stop-color="#4871E6"/>
      <stop offset=".66" stop-color="#7534FF"/>
      <stop offset="1" stop-color="#EE16E4"/>
    </linearGradient>
    <clipPath id="eAvHDuOGv_a">
      <path fill="#fff" d="M0 0h48v45H0z"/>
    </clipPath>
  </defs>
</svg>
