<svg xmlns="http://www.w3.org/2000/svg" fill="none" viewBox="0 0 69 63">
  <g clip-path="url(#Ai0uCCyxsRa)">
    <path d="M59.293 3.369A21.227 21.227 0 0034.5 4.689C27.573-.865 17.592-1.684 9.707 3.369-.137 9.695-2.963 22.806 3.373 32.637l13.307 20.62a21.212 21.212 0 0017.82 9.697c7.2 0 13.9-3.642 17.82-9.696l13.307-20.621c6.335-9.832 3.51-22.942-6.334-29.27zm1.002 25.81L46.987 49.844a14.824 14.824 0 01-12.441 6.782c-5.014 0-9.753-2.549-12.442-6.782L8.75 29.179c-4.466-6.874-2.46-16.024 4.421-20.44 6.882-4.415 16.042-2.457 20.463 4.416l.866 1.32.866-1.32c4.42-6.873 13.581-8.876 20.463-4.415 6.882 4.415 8.887 13.565 4.466 20.438z" fill="url(#Ai0uCCyxsRb)"/>
    <path d="M55.829 8.74c-6.882-4.416-16.042-2.458-20.463 4.415l-.866 1.32-.866-1.32C29.214 6.282 20.053 4.28 13.171 8.74c-6.882 4.415-8.887 13.565-4.42 20.438l13.307 20.667A14.824 14.824 0 0034.5 56.627c5.013 0 9.753-2.549 12.442-6.782L60.25 29.179c4.466-6.874 2.46-16.024-4.421-20.44zm-.547 17.252L41.974 46.658c-1.64 2.55-4.466 4.051-7.474 4.051a8.98 8.98 0 01-7.474-4.05L13.718 25.991a8.928 8.928 0 012.643-12.29 8.952 8.952 0 0112.305 2.64L34.5 25.4l5.834-9.058c2.643-4.143 8.157-5.326 12.305-2.64 4.101 2.64 5.332 8.148 2.643 12.29z" fill="#fff"/>
    <path d="M52.639 13.702a8.952 8.952 0 00-12.305 2.64L34.5 25.4l-5.834-9.058c-2.643-4.143-8.157-5.326-12.305-2.64-4.147 2.64-5.332 8.148-2.643 12.29l13.308 20.666c1.64 2.55 4.466 4.051 7.474 4.051a8.98 8.98 0 007.474-4.05l13.308-20.667c2.689-4.142 1.458-9.65-2.643-12.29zm-2.325 9.058L37.007 43.426a2.962 2.962 0 01-2.507 1.366 2.96 2.96 0 01-2.507-1.366L18.686 22.76a2.992 2.992 0 01.866-4.097 3 3 0 014.101.865l10.801 16.797 10.893-16.751c.866-1.366 2.734-1.776 4.102-.865 1.367.865 1.731 2.686.865 4.051z" fill="#142E6B"/>
    <path d="M34.5 44.792a2.96 2.96 0 01-2.507-1.366L18.686 22.76a2.992 2.992 0 01.866-4.097 3 3 0 014.101.865l9.297 14.43c.73 1.093 2.325 1.138 3.054 0l9.343-14.384c.866-1.366 2.734-1.776 4.102-.865a2.943 2.943 0 01.865 4.097l-13.307 20.62c-.547.82-1.504 1.366-2.507 1.366z" fill="#fff"/>
  </g>
  <defs>
    <linearGradient id="Ai0uCCyxsRb" x1="34.5" y1="-.004" x2="34.5" y2="62.955" gradientUnits="userSpaceOnUse">
      <stop stop-color="#6D4BF3"/>
      <stop offset=".427" stop-color="#1D4CF1"/>
      <stop offset="1" stop-color="#990FAF"/>
    </linearGradient>
    <clipPath id="Ai0uCCyxsRa">
      <path fill="#fff" d="M0 0h69v63H0z"/>
    </clipPath>
  </defs>
</svg>
