<svg xmlns="http://www.w3.org/2000/svg" fill="none" viewBox="0 0 170 28">
  <path fill="#fff" d="M0 0h170v28H0z"/>
  <path d="M0 .61h6.845l6.183 17.117L19.21.61h6.845L15.788 26.827h-5.52L0 .61zm32.459 24.94a12.657 12.657 0 01-4.693-4.965c-1.104-2.08-1.683-4.411-1.683-6.936 0-2.635.58-4.966 1.711-7.019 1.132-2.025 2.677-3.662 4.637-4.854C34.391.583 36.599 0 39.028 0c2.705 0 5.023.583 6.9 1.748 1.877 1.165 3.312 2.719 4.306 4.66.993 1.915 1.49 4.05 1.49 6.409 0 .472-.028.943-.083 1.415-.055.472-.138.888-.276 1.22H32.57c.193 1.915.938 3.468 2.208 4.633 1.27 1.166 2.87 1.748 4.748 1.748 1.435 0 2.65-.305 3.67-.943.994-.638 1.794-1.443 2.374-2.441l5.078 2.496c-.8 1.86-2.207 3.385-4.195 4.606-1.987 1.193-4.333 1.803-6.983 1.803-2.65.028-4.995-.583-7.01-1.803zM34.97 6.659c-1.131.943-1.877 2.303-2.235 4.023h12.282c-.138-1.61-.745-2.913-1.85-3.94-1.103-.998-2.483-1.525-4.14-1.525-1.573 0-2.925.471-4.057 1.442zM55.285.61h5.906v3.718c.662-1.498 1.6-2.552 2.815-3.135 1.215-.583 2.622-.86 4.223-.86h1.546v5.576h-2.263c-1.767 0-3.202.555-4.278 1.665-1.077 1.11-1.657 2.663-1.657 4.66v14.593h-6.265V.61h-.027zm20.093 24.747c-2.07-1.36-3.478-3.135-4.25-5.41l4.692-2.275c.69 1.47 1.656 2.636 2.815 3.468a6.762 6.762 0 003.974 1.248c1.104 0 2.015-.25 2.705-.749.69-.5 1.021-1.193 1.021-2.053 0-.749-.303-1.331-.883-1.748-.58-.444-1.297-.749-2.125-.998l-4.278-1.193c-2.208-.638-3.864-1.61-4.996-2.941-1.132-1.304-1.711-2.885-1.711-4.66 0-1.61.414-3.025 1.214-4.218.828-1.192 1.96-2.136 3.395-2.83C78.414.334 80.071 0 81.947 0c2.456 0 4.637.61 6.514 1.803 1.877 1.193 3.229 2.858 4.03 4.994l-4.803 2.275c-.414-1.193-1.16-2.136-2.236-2.83a6.452 6.452 0 00-3.56-1.054c-1.05 0-1.877.25-2.484.721-.608.472-.911 1.11-.911 1.887 0 .749.276 1.304.856 1.72.58.416 1.297.749 2.208 1.026l4.167 1.248c2.18.61 3.837 1.582 4.996 2.886 1.16 1.304 1.711 2.885 1.711 4.716 0 1.581-.414 2.968-1.242 4.161-.828 1.193-1.987 2.136-3.45 2.83-1.463.666-3.202.999-5.189.999-2.677 0-5.106-.666-7.176-2.026zm26.11.194a12.656 12.656 0 01-4.692-4.966c-1.104-2.08-1.683-4.411-1.683-6.936 0-2.635.58-4.966 1.711-7.019 1.131-2.025 2.677-3.662 4.636-4.854C103.421.583 105.629 0 108.057 0c2.705 0 5.023.583 6.9 1.748 1.878 1.165 3.312 2.719 4.306 4.66.993 1.915 1.49 4.05 1.49 6.409 0 .472-.027.943-.082 1.415-.055.472-.138.888-.276 1.22h-18.796c.193 1.915.938 3.468 2.208 4.633 1.269 1.166 2.87 1.748 4.747 1.748 1.435 0 2.65-.305 3.671-.943.994-.638 1.794-1.443 2.374-2.441l5.078 2.496c-.8 1.86-2.208 3.385-4.195 4.606-1.987 1.193-4.333 1.803-6.983 1.803-2.649.028-4.996-.583-7.011-1.803zM104 6.658c-1.132.943-1.877 2.303-2.236 4.023h12.283c-.138-1.61-.746-2.913-1.85-3.94-1.104-.998-2.483-1.525-4.14-1.525-1.573 0-2.925.471-4.057 1.442zm22.633 13.4a3.372 3.372 0 00-3.368 3.384 3.354 3.354 0 003.368 3.385A3.372 3.372 0 00130 23.442a3.354 3.354 0 00-3.367-3.384z" fill="#2049F1"/>
</svg>
